<svg xmlns="http://www.w3.org/2000/svg" xmlns:xlink="http://www.w3.org/1999/xlink" viewBox="0 0 183.56 183.56"><defs><style>.cls-1{isolation:isolate;}.cls-2{fill:#00d0bf;}.cls-3{opacity:0.6;mix-blend-mode:multiply;fill:url(#linear-gradient);}.cls-4{fill:#fff;}.cls-5{fill:#1f2572;}.cls-6{fill:#2e3192;}.cls-7{fill:#000e33;}.cls-8{fill:#0f1a52;}</style><linearGradient id="linear-gradient" x1="113.23" y1="80.78" x2="63.35" y2="108.05" gradientUnits="userSpaceOnUse"><stop offset="0" stop-color="#1b1464"/><stop offset="1" stop-color="#9788fb" stop-opacity="0"/></linearGradient></defs><g class="cls-1"><g id="Layer_1" data-name="Layer 1"><path class="cls-2" d="M106.9,117.91a14,14,0,0,0,7.25-12.26V77.58a5.78,5.78,0,0,0-8.57-5.06L68.9,92.73A14,14,0,0,0,61.66,105v32.77a3,3,0,0,0,4.45,2.62Z"/><path class="cls-3" d="M105.58,72.52,68.9,92.73A14,14,0,0,0,61.66,105v16.43l52.49-28.85v-15A5.78,5.78,0,0,0,105.58,72.52Z"/><path class="cls-4" d="M109,68.57,62,42.77l-.21,15.17a10,10,0,0,0,5.18,8.91l47.24,26,0-15.47A10,10,0,0,0,109,68.57Z"/><polygon class="cls-5" points="84.42 55.1 76.53 50.77 76.53 72.12 84.42 76.46 84.42 55.1"/><path class="cls-6" d="M69.54,46.93,62,42.77l-.21,15.17a10,10,0,0,0,5.18,8.91l2.61,1.43Z"/><path class="cls-7" d="M109,68.57l-2.63-1.44V88.5l7.84,4.3,0-15.47A10,10,0,0,0,109,68.57Z"/><polygon class="cls-8" points="99.29 63.26 91.43 58.95 91.43 80.31 99.29 84.63 99.29 63.26"/></g></g></svg>